<?xml version="1.0" encoding="UTF-8" standalone="no"?>
<!-- Created with Inkscape (http://www.inkscape.org/) -->

<svg
   xmlns:dc="http://purl.org/dc/elements/1.1/"
   xmlns:cc="http://creativecommons.org/ns#"
   xmlns:rdf="http://www.w3.org/1999/02/22-rdf-syntax-ns#"
   xmlns:svg="http://www.w3.org/2000/svg"
   xmlns="http://www.w3.org/2000/svg"
   xmlns:sodipodi="http://sodipodi.sourceforge.net/DTD/sodipodi-0.dtd"
   xmlns:inkscape="http://www.inkscape.org/namespaces/inkscape"
   version="1.1"
   id="svg516"
   width="528.18176"
   height="765.5061"
   viewBox="0 0 528.18176 765.5061"
   sodipodi:docname="jotlogo.svg"
   inkscape:version="0.92.3 (2405546, 2018-03-11)">
  <metadata
     id="metadata522">
    <rdf:RDF>
      <cc:Work
         rdf:about="">
        <dc:format>image/svg+xml</dc:format>
        <dc:type
           rdf:resource="http://purl.org/dc/dcmitype/StillImage" />
        <dc:title></dc:title>
      </cc:Work>
    </rdf:RDF>
  </metadata>
  <defs
     id="defs520" />
  <sodipodi:namedview
     pagecolor="#ffffff"
     bordercolor="#666666"
     borderopacity="1"
     objecttolerance="10"
     gridtolerance="10"
     guidetolerance="10"
     inkscape:pageopacity="0"
     inkscape:pageshadow="2"
     inkscape:window-width="939"
     inkscape:window-height="1020"
     id="namedview518"
     showgrid="false"
     inkscape:zoom="0.27750512"
     inkscape:cx="-403.21932"
     inkscape:cy="-95.049906"
     inkscape:window-x="2887"
     inkscape:window-y="46"
     inkscape:window-maximized="0"
     inkscape:current-layer="svg516"
     fit-margin-top="0"
     fit-margin-left="0"
     fit-margin-right="0"
     fit-margin-bottom="0" />
  <path
     style="fill:#000000"
     d="m 299.44532,764.07148 c -14.0197,-5.1405 -18.96658,-15.8481 -15.3026,-33.1228 6.15523,-29.0201 33.35661,-63.1258 78.8165,-98.8218 7.35244,-5.7733 10.84357,-9.838 10.84357,-12.6252 0,-0.7241 -2.84119,1.6679 -6.31375,5.3156 -4.83878,5.0828 -7.3477,6.9106 -10.73965,7.8239 -8.91968,2.4019 -18.81714,-1.2908 -23.152,-8.6379 -1.137,-1.9271 -2.41583,-3.1376 -2.84183,-2.6901 -0.42601,0.4475 -2.80702,7.5637 -5.29114,15.8137 -5.66469,18.8129 -7.59933,23.3183 -12.19941,28.4101 -4.5037,4.985 -9.61413,6.6646 -15.47599,5.0861 -4.97229,-1.3389 -8.17549,-5.8299 -10.69612,-14.9963 -2.46858,-8.9771 -2.159,-38.1599 0.6524,-61.4999 4.6895,-38.9319 6.37364,-55.51722 5.70528,-56.18557 -1.21214,-1.21214 -5.35243,3.82954 -10.4175,12.68554 -6.30062,11.01623 -11.09336,22.38173 -16.23516,38.50003 -13.90044,43.5743 -15.58258,47.8849 -20.48281,52.4884 -1.22404,1.1499 -3.77397,2.342 -5.66651,2.6492 -10.54505,1.7112 -18.58069,-9.7732 -20.60017,-29.4414 l -0.74564,-7.2619 -5.85008,13.5811 c -12.45135,28.9061 -19.37832,37.3909 -30.5842,37.4626 -4.47081,0.029 -11.55454,-3.4396 -13.91724,-6.8139 -2.51812,-3.5962 -5.80503,-12.691 -6.66915,-18.4534 -0.38853,-2.5909 -1.00963,-4.7107 -1.38022,-4.7107 -0.3706,0 -2.17049,4.6125 -3.99977,10.25 -7.84645,24.1812 -17.50788,44.8089 -22.37813,47.7784 -9.77569,5.9605 -20.34552,-3.4035 -22.75553,-20.1595 -1.68359,-11.7055 1.16534,-33.2175 8.60813,-64.9992 1.8844,-8.0467 3.42619,-15.4143 3.42619,-16.3725 0,-7.2367 -17.80568,22.4072 -30.034264,50.0028 -3.41215,7.7 -7.29822,15.4625 -8.63571,17.2499 -2.11356,2.8247 -3.02053,3.25 -6.93057,3.25 -7.66224,0 -13.93677,-4.8059 -16.99082,-13.0141 -2.13053,-5.7261 -2.10748,-19.9022 0.0511,-31.4218 1.76361,-9.4118 10.92389,-42.9982 15.69988,-57.564 7.48639,-22.832 19.83682,-49.18781 30.645454,-65.39743 10.42844,-15.63942 26.38528,-33.65962 36.69492,-41.43989 l 3,-2.26398 -11,0.63431 c -21.13265,1.21861 -40.887674,3.42547 -42.131794,4.70659 -2.31857,2.38751 -31.81151,78.9368 -38.82099,100.76037 -5.36308,16.69753 -13.52226,46.72623 -19.56335,72.00003 -3.83944,16.0628 -4.14146,18.3008 -3.67772,27.2512 0.42552,8.2127 0.92642,10.4699 3.17493,14.3066 3.04762,5.2004 2.30018,7.4421 -2.48139,7.4421 -13.71744,0 -22.9374695,-16.9732 -22.9823195,-42.3084 -0.0304,-17.1739 2.8806495,-31.2389 14.5884195,-70.4856 8.89139,-29.80571 11.86727,-38.28968 25.3273,-72.20593 5.56597,-14.025 10.80367,-27.24821 11.63932,-29.38492 l 1.51937,-3.88492 -5.29588,0.67539 c -2.91274,0.37146 -12.59981,2.00718 -21.52682,3.63492 -18.59458,3.39052 -23.10564,3.60545 -27.9020495,1.3294 -5.74216,-2.72483 -10.32299,-12.50167 -7.10776,-15.17007 2.23083,-1.85142 30.4563195,-6.05883 65.2407395,-9.72504 3.3,-0.34781 7.41692,-1.06678 9.14871,-1.5977 1.73179,-0.53092 7.58179,-1.11183 13,-1.29092 5.41821,-0.17909 20.201284,-0.66853 32.851284,-1.08764 30.47675,-1.00974 33.71122,-0.49109 57.68597,9.24989 4.95121,2.01168 9.69751,6.79397 12.09957,12.1913 1.61479,3.62837 1.86561,5.72989 1.37254,11.5 -0.33183,3.88317 -1.31661,9.53531 -2.1884,12.56031 -2.53195,8.78554 -14.8982,32.6674 -22.23131,42.93337 -18.21646,25.50212 -51.00306,52.45336 -69.465924,57.10236 -2.59158,0.6525 -5.15087,1.7153 -5.6873,2.3617 -2.43769,2.9372 -13.05539,51.1122 -13.08122,59.3526 -0.0107,3.4012 2.48068,-0.6596 13.99608,-22.8135 13.091414,-25.1859 18.032654,-32.4958 26.787454,-39.6287 4.5228,-3.6848 5.95191,-4.3078 9.88197,-4.3078 2.95763,0 5.8353,0.7668 8.07727,2.1524 8.20975,5.0739 8.33377,14.5408 0.65116,49.7055 -6.69464,30.6426 -8.38899,40.5362 -8.39405,49.0145 -0.005,8.4464 1.2609,7.3574 8.39294,-7.2202 6.83392,-13.9683 26.36414,-72.097 30.5596,-90.956 4.59124,-20.6381 8.5667,-29.80126 13.79411,-31.79449 3.86815,-1.47495 10.78923,-0.20215 14.01828,2.57797 4.52872,3.89913 3.77398,13.01902 -4.05682,49.02032 -3.589,16.5 -7.0174,33.2362 -7.61868,37.1915 -1.29007,8.4864 -1.44003,19.3085 -0.26754,19.3085 3.19211,0 12.78335,-15.7956 23.5516,-38.7865 13.06631,-27.8974 12.29758,-25.3362 14.55212,-48.4848 1.11265,-11.42421 2.52615,-21.71143 3.14111,-22.8605 0.99412,-1.85753 1.82487,-2.04421 7.49149,-1.68338 8.60789,0.5481 10.71597,2.5673 12.37554,11.85371 0.76536,4.28267 1.02032,10.55287 0.65959,16.22127 -0.32341,5.0821 -1.04341,17.5652 -1.6,27.7402 -0.55659,10.175 -1.23696,20.75 -1.51194,23.5 -0.74271,7.4277 0.58597,4.2969 7.00256,-16.5 11.79064,-38.215 24.91892,-64.88853 34.87441,-70.85662 10.40271,-6.23617 24.63063,-0.64149 28.10278,11.05053 3.71404,12.50649 3.15577,22.13349 -4.03245,69.53619 -4.2265,27.8717 -5.69114,47.2698 -3.56906,47.2698 0.47489,0 2.01494,-2.5875 3.42235,-5.75 3.7468,-8.4192 19.06197,-51.4376 21.62785,-60.7499 4.66498,-16.9306 13.92879,-31.9979 25.94039,-42.19125 10.82887,-9.18967 20.81013,-12.36436 32.31473,-10.27818 12.16938,2.20673 23.23293,10.17742 22.63789,16.30933 -0.46419,4.7835 -4.59068,4.875 -10.54768,0.2339 -5.19458,-4.04705 -6.09196,-4.21341 -10.55863,-1.9574 -15.51723,7.8372 -32.88224,31.8273 -38.64127,53.3836 -2.46887,9.241 -3.05424,16.5 -1.3306,16.5 1.79138,0 17.33208,-15.5278 26.28032,-26.2584 4.24627,-5.0921 9.84345,-13.2559 12.43818,-18.1418 2.59472,-4.8859 5.99236,-10.1046 7.55031,-11.5972 2.622,-2.5121 3.0968,-2.6267 6.38495,-1.5415 1.95378,0.6448 4.69197,2.5268 6.08489,4.1822 2.86102,3.4001 2.85269,3.4863 -1.62164,16.7786 -1.5592,4.6321 -2.60759,8.6493 -2.32976,8.9271 0.27783,0.2778 1.73795,-0.613 3.24471,-1.9796 1.50676,-1.3667 7.12398,-6.4489 12.4827,-11.294 9.60319,-8.6826 9.73457,-8.8627 9.14696,-12.5374 -1.30876,-8.1846 3.67523,-22.39087 9.60622,-27.38147 8.67899,-7.30289 25.48696,-5.53882 35.77367,3.75459 4.42524,3.99794 5.84571,7.56988 4.21904,10.60938 -1.65812,3.0982 -5.18189,2.3679 -9.74894,-2.0205 -2.28954,-2.20003 -4.51769,-3.99923 -4.95144,-3.99824 -1.4,0.003 -6.14497,8.40344 -7.06679,12.51074 -1.10517,4.9242 0.0445,16.3087 2.32135,22.9875 2.56922,7.5363 6.24501,15.5005 7.15177,15.4955 0.44277,0 7.02614,-6.5275 14.62972,-14.5 8.0297,-8.4193 14.59746,-14.4955 15.66822,-14.4955 2.52543,0 5.00709,1.0328 5.00709,2.0838 0,0.4785 -5.90452,7.5178 -13.12116,15.643 -7.21663,8.1253 -14.16732,16.1338 -15.44596,17.7967 l -2.32481,3.0236 3.52379,9.3813 c 4.58129,12.1968 6.36979,21.8715 6.36107,34.4095 -0.0226,32.538 -9.11916,50.431 -30.71676,60.4203 -8.10847,3.7504 -19.78426,3.8825 -26.04899,0.2948 -12.32217,-7.0567 -13.20457,-30.3011 -1.99367,-52.5178 3.22059,-6.3823 9.29413,-15.7513 18.92321,-29.1909 3.21381,-4.4856 5.84328,-9.0584 5.84328,-10.1618 0,-1.1034 -2.90444,-8.7876 -6.45432,-17.0759 -3.54988,-8.2883 -6.99611,-16.878 -7.65829,-19.0882 -0.66218,-2.2101 -1.70932,-4.0184 -2.32698,-4.0184 -0.61766,0 -3.80893,2.7309 -7.09171,6.0687 -3.28279,3.3378 -10.3288,9.6855 -15.65781,14.106 -6.1806,5.1268 -10.11001,9.1757 -10.85145,11.1812 -4.57893,12.3858 -8.07073,23.796 -15.98152,52.2234 -12.4206,44.6334 -16.31343,54.6896 -26.32609,68.0076 -9.12169,12.133 -25.30676,25.6159 -34.74831,28.9471 -5.19205,1.8318 -17.1522,1.7838 -22.26099,-0.089 z m 19.19388,-18.8351 c 12.3122,-9.4816 24.42811,-28.7427 32.14966,-51.1096 6.24249,-18.0824 17.11812,-53.7291 16.56214,-54.2851 -0.63927,-0.6392 -17.8486,15.2518 -28.06636,25.9163 -21.75986,22.7115 -35.30895,43.7152 -39.05159,60.5377 -2.08325,9.3638 -1.67356,21.7854 0.84533,25.6293 l 1.7756,2.7096 5.2244,-2.6443 c 2.87343,-1.4544 7.62579,-4.4937 10.56082,-6.7539 z m 128.66206,-41.7396 c 4.77429,-5.2845 8.25282,-12.9052 9.07393,-19.8789 l 0.64654,-5.4911 -11.35947,0.3412 c -6.24771,0.1877 -11.58447,0.5627 -11.85947,0.8334 -1.03793,1.0216 -0.40259,15.9793 0.82882,19.513 1.69978,4.8776 4.88222,8.8124 7.1274,8.8124 0.99608,0 3.49009,-1.8585 5.54225,-4.13 z m 9.66183,-39.1626 c -0.74689,-12.1694 -2.86502,-25.7143 -4.01871,-25.6986 -1.67923,0.023 -15.15392,24.2579 -15.13225,27.2163 0.006,0.8696 1.99313,1.3528 6.25,1.5199 3.43236,0.1348 7.59066,0.632 9.24066,1.105 1.65,0.473 3.20667,0.6811 3.45926,0.4624 0.2526,-0.2186 0.34307,-2.2909 0.20104,-4.605 z m -352.88178,-98.8442 c 28.48141,-14.36026 54.0782,-42.22052 68.71198,-74.78803 5.68884,-12.66052 8.09729,-21.76784 8.18365,-30.94567 0.0935,-9.93566 -0.34337,-10.77374 -5.72199,-10.97718 -5.30737,-0.20075 -8.79866,1.40832 -16.77557,7.73157 -18.28303,14.49284 -45.51615,59.60852 -57.64637,95.49974 -2.766624,8.18597 -5.030214,15.27347 -5.030214,15.74997 0,1.4812 1.83717,0.9773 8.278514,-2.2704 z m 229.73655,-7.6147 c -13.52465,-6.78552 -16.13668,-42.47269 -6.4451,-88.05684 l 0.70339,-3.30841 -4.38668,2.9156 c -2.41267,1.60358 -6.5576,3.72876 -9.21094,4.72263 -3.98215,1.4916 -5.533,2.86933 -8.88454,7.89281 -5.68598,8.52246 -11.45061,14.31404 -17.2912,17.37203 -4.21867,2.2088 -6.32826,2.62537 -13.5,2.66582 -7.51498,0.0424 -9.04072,-0.26994 -13.16604,-2.69502 -6.108,-3.59061 -11.2892,-9.75594 -14.01558,-16.6777 -1.81639,-4.61149 -2.19548,-7.57428 -2.1853,-17.07935 0.0112,-10.44065 0.31142,-12.32906 3.25934,-20.5 1.78587,-4.95 3.4589,-10.575 3.71785,-12.5 2.3726,-17.63762 4.53789,-23.10432 12.47571,-31.4974 7.08359,-7.48984 14.31235,-10.76267 24.91402,-11.27982 10.83546,-0.52856 17.8457,1.86187 24.53988,8.36787 12.438,12.08835 13.60132,29.48081 3.84721,57.51866 -2.4129,6.9358 -4.38709,12.8834 -4.38709,13.21689 0,1.47321 6.98232,-3.74158 12.09645,-9.03431 4.99874,-5.17331 6.0006,-6.9667 9.38064,-16.79189 8.04959,-23.39873 19.99392,-47.92827 31.89436,-65.5 2.79365,-4.125 10.26544,-12.68895 16.60396,-19.031 14.5477,-14.55579 21.46042,-18.469 32.62567,-18.469 6.55991,0 7.55201,0.27761 11.05285,3.09283 6.55992,5.27517 8.34607,8.7793 8.34607,16.37355 0,12.33093 -3.8024,21.34663 -15.69814,37.22112 -15.1142,20.16943 -38.50882,40.80835 -57.72285,50.92355 l -9.37204,4.9339 -2.14863,7.96294 c -3.36694,12.47805 -5.468,22.91578 -4.75613,23.62766 0.99369,0.99368 9.82847,-2.95231 24.19779,-10.80777 15.26419,-8.34467 22.0739,-12.83447 29.22922,-19.27148 3.90558,-3.51351 5.74072,-4.54192 7.25,-4.0629 1.11143,0.35276 2.02078,1.0166 2.02078,1.47521 0,0.4586 -3.30434,3.91578 -7.34297,7.68261 -7.24356,6.75606 -25.61511,18.50422 -39.92028,25.52803 -7.50798,3.68641 -7.33338,2.96209 -3.09043,12.82075 3.97719,9.24116 3.96664,22.25719 -0.0296,36.5 -6.41165,22.85143 -13.24393,29.44683 -24.60164,23.74843 z m 14.45681,-27.53044 c 3.1185,-11.37706 3.29932,-21.01048 0.56076,-29.87689 -1.08205,-3.50326 -2.58578,-7.2153 -3.34163,-8.24899 -1.24808,-1.70686 -1.47747,-1.33826 -2.4982,4.01423 -3.14197,16.47585 -3.90233,40.88763 -1.53721,49.35287 0.64975,2.32559 0.78494,2.22877 2.48833,-1.78202 0.99069,-2.33267 2.93826,-8.38931 4.32795,-13.4592 z m -63.47835,-36.96799 c 3.85057,-2.3153 6.64194,-5.10168 9.70576,-9.6884 2.36539,-3.54112 4.30071,-6.74246 4.30071,-7.11408 0,-0.37162 -1.96205,-0.9446 -4.36011,-1.27329 -6.44628,-0.88356 -14.91531,-4.32204 -21.40342,-8.68991 l -5.73647,-3.86186 -0.83347,3.68877 c -1.17612,5.20527 -0.0396,18.56657 1.89791,22.31339 2.21037,4.27438 6.26882,7.87538 8.87582,7.87538 1.18152,0 4.58049,-1.4625 7.55327,-3.25 z m 19.50438,-27.3412 c 6.82794,-15.43917 10.25863,-33.11499 8.52225,-43.9088 -1.48949,-9.25909 -6.54456,-18.33605 -12.39128,-22.25 -2.6702,-1.7875 -6.10277,-3.25 -7.62794,-3.25 -3.50232,0 -13.89625,6.86289 -17.44964,11.52164 -2.57028,3.3698 -6.67473,11.65124 -7.98514,16.11139 -0.53359,1.81617 -0.11719,2.22862 2.80309,2.77646 5.95747,1.11763 6.18007,2.31195 2.51497,13.49364 l -3.27848,10.00216 4.44713,5.66125 c 5.11556,6.51217 13.01788,11.73347 20.94713,13.8404 3.025,0.80379 5.84317,1.49105 6.26261,1.52725 0.41944,0.0362 1.87532,-2.45023 3.2353,-5.52539 z m 70.10821,-33.48912 c 15.43143,-11.68001 33.77382,-30.49361 43.11202,-44.21956 2.31998,-3.41007 5.62538,-10.02512 7.34534,-14.70012 2.6901,-7.31195 3.06177,-9.45561 2.65915,-15.33699 -0.61351,-8.96193 -1.79393,-10.20136 -7.76753,-8.15583 -5.84645,2.00198 -14.38981,8.53211 -20.92338,15.99282 -7.30936,8.34659 -19.85497,27.52483 -26.35312,40.28554 -5.18118,10.17451 -14.6786,32.94778 -14.6786,35.19688 0,1.60471 9.00627,-3.31043 16.60612,-9.06274 z m -180.04819,95.15436 c -4.54524,-3.03731 -7.54684,-8.77548 -7.55281,-14.43871 -0.007,-6.55313 3.98496,-13.92821 8.76711,-16.19749 6.37632,-3.02576 16.22777,-0.2456 16.22777,4.57961 0,0.93911 -1.39885,5.03187 -3.10856,9.09501 -2.06134,4.89882 -3.1562,9.24038 -3.25,12.88754 l -0.14144,5.5 -4,0.27003 c -2.67295,0.18044 -4.97606,-0.38222 -6.94207,-1.69599 z M 51.802796,421.04419 c -14.5961,-3.85083 -26.41275,-13.3334 -29.47806,-23.65543 -3.5962,-12.10971 -0.86966,-27.66662 7.93555,-45.27823 6.67964,-13.36016 14.31694,-23.07642 30.68319,-39.03553 23.67855,-23.08948 48.833924,-41.17985 84.645224,-60.8722 6.75724,-3.71575 12.9128,-7.72792 13.679,-8.91593 4.92161,-7.63099 25.25651,-68.9737 33.02902,-99.63606 11.93821,-47.095975 16.93228,-89.167359 13.01495,-109.641409 -1.94303,-10.15533 -2.80103,-10.95035 -11.46291,-10.62168 -39.66924,1.50524 -93.986474,45.138894 -119.446714,95.952919 -10.63583,21.22719 -15.12331,35.47603 -16.15191,51.28621 -0.83719,12.86798 -1.27387,14.81017 -3.48795,15.51289 -2.85981,0.90767 -12.3352,-2.11679 -15.82104,-5.04993 -5.24797,-4.41588 -6.4738,-9.56735 -5.87752,-24.69995 0.66006,-16.75134 3.69825,-28.8953 11.04577,-44.15106 C 60.988086,77.193305 88.303676,45.196631 120.65728,22.572871 139.74333,9.226651 154.15892,3.051051 172.07823,0.54427101 202.48345,-3.709209 233.59148,17.466601 239.77516,46.626841 c 3.02466,14.263274 2.28266,37.779064 -2.05093,65.000009 -4.37779,27.49848 -15.37688,71.49626 -24.85567,99.42584 -2.22608,6.55922 -3.9385,12.03477 -3.80538,12.16789 0.13312,0.13312 5.25132,-0.97478 11.37377,-2.462 l 11.13173,-2.70404 9.01918,-13.46385 c 27.4854,-41.03022 49.50064,-55.84688 69.42581,-46.72483 5.58725,2.55793 16.99999,12.02659 20.03253,16.62015 2.00626,3.03899 2.31861,9.17882 0.55659,10.94084 -2.63001,2.63001 -5.5904,1.24611 -11.33756,-5.3 -4.39967,-5.01129 -6.3303,-6.5 -8.42952,-6.5 -12.16903,0 -42.92365,37.39456 -59.62661,72.5 -5.40446,11.35883 -12.74417,31.97377 -13.88549,39 l -0.64975,4 5.32492,-5.53927 c 2.9287,-3.04659 18.9148,-22.62159 35.52466,-43.5 36.02207,-45.27932 36.18273,-45.46073 40.26049,-45.46073 7.41121,0 15.26476,6.57704 16.48618,13.80654 0.36874,2.18256 0.17957,7.50646 -0.42038,11.83088 -2.02411,14.58981 -19.27578,76.81717 -25.9647,93.65555 -3.02337,7.61089 -3.94937,12.36098 -2.19878,11.27906 0.4859,-0.3003 5.7228,-11.23936 11.63757,-24.30902 5.91476,-13.06965 15.86574,-34.2932 22.11328,-47.16344 l 11.35917,-23.40043 2.53279,-24.59957 c 3.84937,-37.38689 4.40971,-39.09957 12.79223,-39.09957 6.14923,0 13.90396,2.54345 16.64255,5.45853 4.76082,5.06767 6.04157,21.96421 4.05841,53.54147 -0.5354,8.525 -1.43339,23.6 -1.99553,33.5 -0.56214,9.9 -1.29878,20.475 -1.63698,23.5 -0.41454,3.7079 -0.28503,5.17416 0.39748,4.5 0.55681,-0.55 4.93167,-13.79296 9.72192,-29.4288 13.64542,-44.53998 26.23797,-73.62865 39.20191,-90.55604 9.32065,-12.17024 13.93058,-15.02415 24.21332,-14.98997 6.24954,0.0208 8.47935,0.49598 12.71627,2.71002 9.51483,4.97204 13.84722,12.34756 16.3091,27.76479 2.19851,13.7679 0.29007,35.58673 -7.3543,84.0806 -7.84419,49.76145 -8.4208,55.37996 -6.94467,67.6694 0.34683,2.8875 0.9553,5.25 1.35215,5.25 0.96846,0 6.97676,-13.38035 11.00146,-24.5 1.79163,-4.95 8.31383,-22.725 14.49379,-39.5 6.17996,-16.775 12.91373,-35.675 14.96392,-42 3.919,-12.09039 6.60051,-16 10.97402,-16 1.27698,0 2.84835,0.63447 3.49193,1.40993 1.78937,2.15607 -1.61024,14.31222 -12.05063,43.09007 -4.98841,13.75 -10.16777,28.6 -11.5097,33 -5.22508,17.13227 -11.54419,36.26213 -13.79923,41.77442 -3.15904,7.72206 -9.7672,16.28399 -14.34342,18.5842 -14.37675,7.22638 -26.39307,0.31763 -31.06134,-17.85862 -4.74552,-18.47699 -4.24088,-53.1362 1.43417,-98.5 7.38194,-59.00798 8.59553,-72.5 6.52126,-72.5 -1.61169,0 -7.81869,7.64093 -11.87638,14.62005 -12.75313,21.93504 -19.98309,39.85232 -31.36313,77.7241 -12.37037,41.16746 -18.68351,55.30231 -26.23064,58.72925 -8.6073,3.90833 -18.1972,1.35785 -23.39365,-6.22166 -8.11361,-11.83447 -11.04015,-21.5891 -12.08543,-40.28268 l -0.66713,-11.93093 -3.42941,8.43093 c -1.88617,4.63702 -6.78784,16.30594 -10.89259,25.93094 -4.10475,9.625 -9.64475,23.29912 -12.3111,30.38694 -8.75098,23.26218 -13.60005,29.60142 -22.64902,29.60932 -17.31597,0.0151 -26.29291,-18.00474 -21.74217,-43.64412 2.36474,-13.32321 9.13153,-36.39191 16.49739,-56.24135 3.345,-9.01406 5.88653,-16.5845 5.64784,-16.82318 -0.62059,-0.6206 -9.36727,11.42021 -23.3997,32.21239 -13.79813,20.44501 -28.06533,37.90866 -33.20564,40.64509 -4.88007,2.5979 -10.64598,2.34173 -16.84722,-0.74847 -8.76388,-4.36723 -12.88094,-12.21442 -13.89327,-26.48082 -0.87166,-12.28404 2.62732,-27.17824 10.27159,-43.72324 1.9083,-4.13026 3.26079,-7.7184 3.00554,-7.97365 -0.68047,-0.68048 -18.76224,6.69571 -20.72726,8.45538 -0.92125,0.82498 -3.57756,6.29826 -5.90289,12.16284 -5.89854,14.87633 -23.90214,53.2926 -31.70988,67.66287 -11.981,22.05121 -22.37721,38.68483 -32.75154,52.40144 -19.15252,25.32287 -31.24263,36.5667 -47.960664,44.60356 -13.5802,6.5284 -22.44652,7.82853 -33.5,4.91234 z m 8.8065,-23.20532 c 15.50935,-9.81607 31.61242,-26.71965 45.928844,-48.21202 11.48139,-17.23632 14.76222,-23.01111 27.1626,-47.81067 13.30206,-26.60283 16.64378,-33.98093 15.78139,-34.84332 -0.77832,-0.77832 -18.42035,10.07674 -31.67934,19.49215 -30.550224,21.69419 -51.878844,43.93663 -62.462084,65.13828 -7.44743,14.9196 -9.03986,20.92365 -9.0239,34.02356 0.0112,9.16555 0.38013,12.17619 1.81759,14.83105 2.11897,3.91353 2.17061,3.90269 12.4749,-2.61903 z"
     id="path546"
     inkscape:connector-curvature="0" />
</svg>
